<svg width="49" height="50" viewBox="0 0 49 50" fill="none" xmlns="http://www.w3.org/2000/svg">
<path d="M1 22.6775L7.19355 25.7743V45.9033L1 42.8065V22.6775Z" stroke="#FC2D29" stroke-linejoin="round"/>
<path d="M13.3877 49V41.2581L24.2264 35.8387V43.5807L13.3877 49Z" stroke="#FC2D29" stroke-linejoin="round"/>
<path d="M18.0322 25L24.2258 28.0968V35.8387L18.0322 32.7419V25Z" stroke="#FC2D29" stroke-linejoin="round"/>
<path d="M24.2256 35.8387L30.4191 32.742V25L24.2256 28.0968V35.8387Z" stroke="#FC2D29" stroke-linejoin="round"/>
<path d="M7.19336 45.9032L13.3869 42.8064V22.6774L7.19336 25.7742V45.9032Z" stroke="#FC2D29" stroke-linejoin="round"/>
<path d="M13.3871 22.6775L7.19355 19.5807L1 22.6775L7.19355 25.7742L13.3871 22.6775Z" stroke="#FC2D29" stroke-linejoin="round"/>
<path d="M30.4193 25L24.2258 21.9032L18.0322 25L24.2258 28.0967L30.4193 25Z" stroke="#FC2D29" stroke-linejoin="round"/>
<path d="M7.19336 38.1614L13.3869 41.2582V49.0001L7.19336 45.9033V38.1614Z" fill="#EFF1F3" stroke="#FC2D29" stroke-linejoin="round"/>
<path d="M24.2256 35.8387L18.0321 32.7419L7.19336 38.1613L13.3869 41.2581L24.2256 35.8387Z" fill="#EFF1F3" stroke="#FC2D29" stroke-linejoin="round"/>
<path d="M24.2256 21.9032V11.0645" stroke="#FC2D29"/>
<path d="M18.8067 9.51611H49.0003V12.6129H15.71L18.8067 9.51611Z" fill="#FC2D29"/>
<rect x="25.7744" y="45.9032" width="23.2258" height="3.09677" fill="#FC2D29"/>
<rect x="32.7412" y="38.9355" width="9.29032" height="10.0645" fill="#FC2D29"/>
<path d="M39.7094 1H40.4836V42.8065H34.29V9.51613L39.7094 1Z" stroke="#FC2D29"/>
<path d="M34.29 12.6129L40.4836 16.871" stroke="#FC2D29"/>
<path d="M34.29 23.4517L40.4836 27.7097" stroke="#FC2D29"/>
<path d="M34.29 34.2903L40.4836 38.5483" stroke="#FC2D29"/>
<path d="M34.29 22.2903L40.4836 18.0322" stroke="#FC2D29"/>
<path d="M34.29 33.129L40.4836 28.871" stroke="#FC2D29"/>
</svg>
